<?xml version="1.0" encoding="UTF-8"?>
<svg xmlns="http://www.w3.org/2000/svg" xmlns:xlink="http://www.w3.org/1999/xlink" viewBox="0 0 624.93 597.58">
  <defs>
    <style>
      .cls-1 {
        fill: #ffb800;
      }

      .cls-2 {
        fill: #428f6c;
      }

      .cls-3 {
        clip-path: url(#clippath-2);
      }

      .cls-3, .cls-4, .cls-5, .cls-6, .cls-7, .cls-8, .cls-9, .cls-10, .cls-11, .cls-12, .cls-13, .cls-14, .cls-15 {
        fill: none;
      }

      .cls-16 {
        fill: #fff;
      }

      .cls-17 {
        fill: #4380ac;
      }

      .cls-18 {
        fill: #ffd285;
      }

      .cls-19 {
        fill: #002f57;
      }

      .cls-20 {
        fill: #3b2f27;
      }

      .cls-21 {
        fill: url(#linear-gradient);
        mix-blend-mode: multiply;
        opacity: .37;
      }

      .cls-22 {
        fill: #54545c;
      }

      .cls-23 {
        fill: #52b387;
      }

      .cls-4, .cls-5, .cls-24, .cls-9, .cls-12, .cls-14, .cls-15 {
        stroke-miterlimit: 10;
      }

      .cls-4, .cls-7 {
        stroke: #d6e8ff;
      }

      .cls-5 {
        stroke: #ba5a47;
      }

      .cls-5, .cls-6, .cls-7, .cls-9 {
        stroke-width: 2px;
      }

      .cls-25 {
        fill: #ffbe4d;
      }

      .cls-26 {
        fill: #5059a6;
      }

      .cls-27 {
        opacity: .11;
      }

      .cls-28 {
        fill: #e6e6e6;
      }

      .cls-24 {
        stroke: #000e38;
      }

      .cls-24, .cls-29, .cls-30 {
        fill: #000e38;
      }

      .cls-31 {
        fill: #ff4e2b;
      }

      .cls-32 {
        fill: #ffd8b8;
      }

      .cls-33 {
        fill: #f7d2b2;
      }

      .cls-6 {
        stroke: #b4c3d6;
      }

      .cls-6, .cls-7 {
        stroke-linecap: round;
        stroke-linejoin: round;
      }

      .cls-29 {
        opacity: .39;
      }

      .cls-34 {
        fill: #63a6ff;
      }

      .cls-8 {
        isolation: isolate;
      }

      .cls-35 {
        fill: #87b7e2;
      }

      .cls-9 {
        stroke: #c4923b;
      }

      .cls-36 {
        fill: #adadad;
      }

      .cls-37 {
        fill: #ccc;
      }

      .cls-11 {
        clip-path: url(#clippath);
      }

      .cls-12 {
        stroke: #315a66;
      }

      .cls-38 {
        fill: #f08873;
      }

      .cls-13 {
        clip-path: url(#clippath-1);
      }

      .cls-39 {
        fill: #d6e8ff;
      }

      .cls-40 {
        fill: #ffc494;
      }

      .cls-14 {
        stroke: #cf9f78;
      }

      .cls-41 {
        fill: #c4c4c4;
      }

      .cls-15 {
        stroke: #f08873;
      }
    </style>
    <clipPath id="clippath">
      <rect class="cls-10" x="58.98" y="54.43" width="482.88" height="535.5" rx="30.79" ry="30.79"/>
    </clipPath>
    <clipPath id="clippath-1">
      <rect class="cls-10" x="58.98" y="54.68" width="482.88" height="535.5"/>
    </clipPath>
    <clipPath id="clippath-2">
      <rect class="cls-10" x="116.56" y="202.8" width="216.51" height="194.66" transform="translate(524.95 75.31) rotate(90)"/>
    </clipPath>
    <linearGradient id="linear-gradient" x1="97.34" y1="-16040.81" x2="217.74" y2="-16040.81" gradientTransform="translate(0 -15738.64) scale(1 -1)" gradientUnits="userSpaceOnUse">
      <stop offset=".37" stop-color="#fff"/>
      <stop offset="1" stop-color="#000"/>
    </linearGradient>
  </defs>
  <g class="cls-8">
    <g id="Layer_1" data-name="Layer 1">
      <g class="cls-11">
        <g class="cls-13">
          <rect class="cls-35" width="624.93" height="479.18"/>
          <path class="cls-1" d="m50.28,388.46c86.92,0,222.79-178.87,320-178.87s191.85,154.85,191.85,154.85v153.17H50.28v-129.16Z"/>
          <path class="cls-23" d="m519.09,504.86s14.72-63.58,25.11-62.45c10.39,1.13-17.58,65.48-17.58,65.48l-7.53-3.03Z"/>
          <path class="cls-23" d="m103.25,486.15s-10.77-93.39-.74-97.56c10.03-4.17,8.85,97.5,8.85,97.5l-8.11.06Z"/>
          <path class="cls-23" d="m342.12,506.07s-10.77-93.39-.74-97.56c10.03-4.17,8.85,97.5,8.85,97.5l-8.11.06Z"/>
          <path class="cls-2" d="m68.48,506.68h217.93s-5.91-39.92-16.15-41.63c-10.24-1.71-15.01,20.82-15.01,20.82,0,0-2.05-43.68-16.38-41.97-14.33,1.71-11.6,25.5-18.09,26.4-6.48.9-7.17-47.22-21.5-48.58-14.33-1.36-16.04,19.11-21.84,18.77-5.8-.34,1.36-41.29-22.52-40.27s-29.69,70.29-37.19,66.88c-7.51-3.41-11.94-18.09-17.74-15.36-5.8,2.73-6.48,29.35-13.31,28.32-6.82-1.02-9.21-9.21-14.67-5.12-5.46,4.09-3.53,31.73-3.53,31.73Z"/>
          <path class="cls-2" d="m304.28,506.68h217.93s-5.91-39.92-16.15-41.63c-10.24-1.71-15.01,20.82-15.01,20.82,0,0-2.05-43.68-16.38-41.97-14.33,1.71-11.6,25.5-18.09,26.4-6.48.9-7.17-47.22-21.5-48.58-14.33-1.36-16.04,19.11-21.84,18.77-5.8-.34,1.37-41.29-22.52-40.27-23.89,1.02-29.69,70.29-37.19,66.88-7.51-3.41-11.94-18.09-17.74-15.36-5.8,2.73-6.48,29.35-13.31,28.32-6.82-1.02-9.21-9.21-14.67-5.12-5.46,4.09-3.53,31.73-3.53,31.73Z"/>
          <path class="cls-23" d="m359.61,506.68s-13.24-123.01,0-128.4c13.24-5.39,10.68,128.4,10.68,128.4h-10.68Z"/>
          <path class="cls-23" d="m476.51,516.61s5.36-123.61,19.25-126.95c13.9-3.34-8.7,128.55-8.7,128.55l-10.55-1.6Z"/>
          <path class="cls-23" d="m502.16,516.4s4.07-93.92,14.63-96.46c10.56-2.54-6.61,97.68-6.61,97.68l-8.02-1.22Z"/>
          <path class="cls-23" d="m82,512.19s-10.77-93.39-.74-97.56c10.03-4.17,8.85,97.5,8.85,97.5l-8.11.06Z"/>
          <rect class="cls-19" x="50.28" y="500.79" width="500.26" height="96.8"/>
          <ellipse class="cls-29" cx="425.6" cy="540.93" rx="49.62" ry="6.57"/>
          <ellipse class="cls-29" cx="224.82" cy="537.06" rx="134.79" ry="6.57"/>
          <path class="cls-17" d="m73.73,186.35h210.37s-18.35-1.74-28.65-9.4c-10.3-7.66-6.76-24.22-39.27-24.22,0,0-7.08-36.55-41.21-36.55s-40.56,25.61-40.56,38.88c0,0-8.69-4.45-16.1,4.9-7.4,9.34-6.44,14.49-14.16,14.82s-21.73,11.27-30.42,11.59Z"/>
          <path class="cls-17" d="m354.84,146.38h167.44s-14.6-1.39-22.8-7.48-5.38-19.28-31.26-19.28c0,0-4.16-29.09-33.63-29.09-22.8,0-31.45,20.38-31.45,30.94,0,0-6.92-3.54-12.81,3.9s-5.12,11.79-11.27,11.79c-12.99,0-17.3,8.97-24.21,9.22Z"/>
          <rect class="cls-22" x="116.28" y="166.21" width="217.08" height="370.85"/>
          <rect class="cls-16" x="51.78" y="255.41" width="346.07" height="194.66" transform="translate(577.56 127.92) rotate(90)"/>
          <rect class="cls-39" x="110.48" y="196.71" width="228.69" height="194.66" transform="translate(518.87 69.23) rotate(90)"/>
          <rect class="cls-30" x="206.94" y="100.25" width="35.76" height="194.66" transform="translate(422.4 -27.23) rotate(90)"/>
          <g>
            <line class="cls-24" x1="139.82" y1="202.72" x2="150.92" y2="202.72"/>
            <line class="cls-24" x1="139.82" y1="199.29" x2="150.92" y2="199.29"/>
            <line class="cls-24" x1="139.82" y1="195.87" x2="150.92" y2="195.87"/>
            <line class="cls-24" x1="139.82" y1="192.45" x2="150.92" y2="192.45"/>
          </g>
          <g class="cls-3">
            <g>
              <g>
                <circle class="cls-41" cx="136.02" cy="302.17" r="56.55"/>
                <path class="cls-36" d="m136.02,358.72c14.58,0,27.86-5.52,37.89-14.57l-3.73-15.37c-1.51-4.01-4.87-7.05-9.01-8.15l-10.94-2.91c-2.2-.59-3.84-2.42-4.18-4.67l-.4-2.68c5.14-5.03,8.57-13.69,8.57-22.25,0-13.2-8.15-22.23-18.2-22.23s-18.2,9.03-18.2,22.23c0,8.56,3.42,17.21,8.57,22.25l-.4,2.68c-.34,2.25-1.98,4.09-4.18,4.67l-10.94,2.91c-4.14,1.1-7.5,4.14-9.01,8.15l-3.73,15.37c10.03,9.06,23.31,14.57,37.89,14.57Z"/>
              </g>
              <circle class="cls-21" cx="136.02" cy="302.17" r="56.55"/>
              <path class="cls-27" d="m175.31,261.52c-9.09,11.06-14.55,25.22-14.55,40.65s5.46,29.59,14.55,40.65c10.64-10.28,17.26-24.69,17.26-40.65s-6.62-30.37-17.26-40.65Z"/>
            </g>
          </g>
          <g>
            <g>
              <circle class="cls-37" cx="224.82" cy="302.17" r="56.55"/>
              <path class="cls-34" d="m224.82,358.72c14.58,0,27.86-5.52,37.89-14.57l-3.73-15.37c-1.51-4.01-4.87-7.05-9.01-8.15l-10.94-2.91c-2.2-.59-3.84-2.42-4.18-4.67l-.4-2.68c5.14-5.03,8.57-13.69,8.57-22.25,0-13.2-8.15-22.23-18.2-22.23s-18.2,9.03-18.2,22.23c0,8.56,3.42,17.21,8.57,22.25l-.4,2.68c-.34,2.25-1.98,4.09-4.18,4.67l-10.94,2.91c-4.14,1.1-7.5,4.14-9.01,8.15l-3.73,15.37c10.03,9.06,23.31,14.57,37.89,14.57Z"/>
            </g>
            <path class="cls-27" d="m261.47,259.12c-10.04,11.52-16.14,26.57-16.14,43.05s6.1,31.53,16.14,43.05c12.17-10.37,19.9-25.8,19.9-43.05s-7.73-32.68-19.9-43.05Z"/>
          </g>
          <path class="cls-16" d="m264.59,393.53h-79.54c-4.88,0-8.84-3.96-8.84-8.84h0c0-4.88,3.96-8.84,8.84-8.84h79.54c4.88,0,8.84,3.96,8.84,8.84h0c0,4.88-3.96,8.84-8.84,8.84Z"/>
          <g>
            <g>
              <path class="cls-25" d="m199.25,446.94h-49.78c-5.32,0-9.64-4.32-9.64-9.64h0c0-5.32,4.32-9.64,9.64-9.64h49.78c5.32,0,9.64,4.32,9.64,9.64h0c0,5.32-4.32,9.64-9.64,9.64Z"/>
              <line class="cls-9" x1="152.51" y1="437.3" x2="196.21" y2="437.3"/>
            </g>
            <g>
              <path class="cls-38" d="m298.32,446.94h-49.78c-5.32,0-9.64-4.32-9.64-9.64h0c0-5.32,4.32-9.64,9.64-9.64h49.78c5.32,0,9.64,4.32,9.64,9.64h0c0,5.32-4.32,9.64-9.64,9.64Z"/>
              <line class="cls-5" x1="251.58" y1="437.3" x2="295.28" y2="437.3"/>
            </g>
          </g>
          <line class="cls-4" x1="127.49" y1="467.53" x2="322.15" y2="467.53"/>
          <g>
            <line class="cls-7" x1="152.51" y1="489.42" x2="240.75" y2="489.42"/>
            <line class="cls-7" x1="152.51" y1="500.79" x2="240.75" y2="500.79"/>
            <polyline class="cls-6" points="295.28 489.77 283.09 500.15 270.89 489.77"/>
          </g>
          <path class="cls-25" d="m214.66,204.59h-65.19c-3.87,0-7-3.13-7-7h0c0-3.87,3.13-7,7-7h65.19c3.87,0,7,3.13,7,7h0c0,3.87-3.13,7-7,7Z"/>
          <g>
            <circle class="cls-16" cx="310.88" cy="302.17" r="56.55"/>
            <path class="cls-38" d="m310.88,358.72c14.58,0,27.86-5.52,37.89-14.57l-3.73-15.37c-1.51-4.01-4.87-7.05-9.01-8.15l-10.94-2.91c-2.2-.59-3.84-2.42-4.18-4.67l-.4-2.68c5.14-5.03,8.57-13.69,8.57-22.25,0-13.2-8.15-22.23-18.2-22.23s-18.2,9.03-18.2,22.23c0,8.56,3.42,17.21,8.57,22.25l-.4,2.68c-.34,2.25-1.98,4.09-4.18,4.67l-10.94,2.91c-4.14,1.1-7.5,4.14-9.01,8.15l-3.73,15.37c10.03,9.06,23.31,14.57,37.89,14.57Z"/>
          </g>
          <path class="cls-32" d="m366.65,317.19s-2.25-4.14-2.74-8.13c-.48-3.98.4-7.4.4-7.4,0,0-5.23-4.55-4.27-6.36s7.73,4.83,7.73,4.83l2.51,7.46-3.63,9.6Z"/>
          <g>
            <path class="cls-28" d="m417.29,520.18v7.33s3.32,9.29,2.44,11.6c-.88,2.31-32.71,7.06-34.87,4-3.26-4.61,18.18-11.06,20.21-16.48l.54-6.44h11.67Z"/>
            <path class="cls-28" d="m461.89,520.18v7.33s3.32,9.29,2.44,11.6c-.88,2.31-32.71,7.06-34.87,4-3.26-4.61,18.18-11.06,20.21-16.48l.54-6.44h11.67Z"/>
            <path class="cls-38" d="m405.62,520.18l-.54,6.44c-.14.38-.39.77-.71,1.16,3.41,1.56,9.06,3.46,13.57,1.66-.37-1.15-.65-1.94-.65-1.94v-7.33h-11.67Z"/>
            <path class="cls-38" d="m450.22,520.18l-.54,6.44c-.3.81-1.04,1.63-2.05,2.48,3.19,1.98,9.06,4.43,15.08.87-.45-1.44-.82-2.46-.82-2.46v-7.33h-11.67Z"/>
            <path class="cls-32" d="m366.25,293.05c4.04,4.35,3.19,13,4.18,14.81,10.77,19.77,20.34,29.71,20.34,29.71,5.15-9.14,5.95-14.29,5.95-14.29l14.92,1.45s-7.81,31.68-18.39,31.5c-10.58-.18-22.64-19.37-28.15-37.91l1.15-25.26Z"/>
            <path class="cls-40" d="m395.39,327.79c2.18,1.57,6.86,4.27,13.9,4.93,1.5-4.58,2.35-7.99,2.35-7.99l-14.92-1.45s-.25,1.57-1.33,4.51Z"/>
            <path class="cls-31" d="m410.24,380.44l54.85-2.17-1.36,144.34s-7.42,3.8-17.36.9c0,0-12.48-88.81-14.11-109.44,0,0-12.12,33.83-12.3,58.61-.18,24.78,0,50.47,0,50.47,0,0-9.77,1.99-15.92,0,0,0-7.42-47.03-9.95-64.21-2.53-17.18,16.14-78.5,16.14-78.5Z"/>
            <path class="cls-27" d="m407.26,390.64c7.04,4.34,28.31,15.66,57.57,15.09l.26-27.46-54.85,2.17s-1.21,3.98-2.98,10.2Z"/>
            <path class="cls-26" d="m399.99,292.17c-3.91,4.97-3.73,27.22-5.27,33.01,0,0,3.98,4.43,14.02,3.89,0,0-2.17-20.53-3.98-27.49-1.81-6.96-4.77-9.41-4.77-9.41Z"/>
            <path class="cls-27" d="m411.64,324.73l-3.42-.33c-.75-6.48-2.19-17.96-3.46-22.82-1.81-6.96-4.77-9.41-4.77-9.41l3.12,55.28c5.22-9.32,8.53-22.72,8.53-22.72Z"/>
            <path class="cls-30" d="m433.53,271.13s12.3,5.02,20.26,11.4c7.96,6.38,12.3,97,12.3,97-13.39,3.08-31.84,22.43-57.7,7.42,0,0-.5-61.68-8.39-94.78,0,0,6.94-10.13,19.78-16.1,9.68-4.5,13.75-4.94,13.75-4.94Z"/>
            <g>
              <path class="cls-26" d="m462.42,328.05c-.03-.32-.06-.64-.09-.96-13.29,1.89-36.17,4.28-56.85,2.21.03.33.06.65.09.98,20.71,2.04,43.55-.34,56.85-2.23Z"/>
              <path class="cls-26" d="m404.16,316.86c.04.32.08.64.12.97,10.34.12,32.18-.16,56.69-3.61-.04-.32-.08-.64-.11-.96-24.56,3.46-46.43,3.73-56.69,3.6Z"/>
              <path class="cls-26" d="m463.58,341.21c-.03-.33-.05-.65-.08-.98-22.34,5.58-45.91,3.56-56.96,2.07.02.33.05.66.07.98,11.19,1.5,34.67,3.47,56.98-2.07Z"/>
              <path class="cls-26" d="m464.58,354.56c-.02-.32-.05-.65-.07-.97-11.01,2.69-30.62,5.75-57.11,3.04.02.33.03.66.05.98,7.26.74,14.01,1.05,20.21,1.05,16.35,0,28.86-2.13,36.92-4.09Z"/>
            </g>
            <g>
              <circle class="cls-16" cx="466.09" cy="359.65" r="53" transform="translate(-117.8 434.91) rotate(-45)"/>
              <path class="cls-18" d="m461.45,412.45c13.61,1.2,26.47-2.87,36.57-10.5l-2.22-14.66c-1.08-3.87-3.97-6.98-7.75-8.35l-9.98-3.62c-2.01-.73-3.39-2.58-3.52-4.71l-.15-2.53c5.22-4.28,9.12-12.08,9.82-20.07,1.08-12.33-5.78-21.43-15.17-22.25s-17.73,6.94-18.81,19.27c-.7,7.99,1.79,16.35,6.18,21.47l-.59,2.47c-.5,2.07-2.18,3.65-4.28,4.02l-10.46,1.82c-3.96.69-7.34,3.25-9.08,6.87l-4.74,14.04c8.62,9.28,20.57,15.52,34.18,16.71Z"/>
            </g>
            <path class="cls-27" d="m444.28,311.35c3.68,6.6,15.82,28.67,16.78,33.85,1.13,6.12,1.59,53.76,1.59,53.76h7.26s4.51-46.68,3.7-56.34c-.57-6.86-9.73-25.31-15-35.44-5.02.71-9.83,2.13-14.33,4.16Z"/>
            <path class="cls-32" d="m456.59,320.57s7.24,17,8.59,23.06c1.36,6.06-.72,50.29-.72,50.29,0,0-9.32,14.74-9.5,16.46-.18,1.72,3.17-.63,4.34,0,1.18.63-.36,3.89.99,4.34,1.36.45,8.05-.36,10.31-3.08,2.26-2.71,3.98-7.87,4.07-14.65,0,0,6.87-38.53,5.34-55.08-.9-9.73-9.59-27.86-9.59-27.86l-13.84,6.51Z"/>
            <path class="cls-40" d="m470.43,314.06l-13.84,6.51s.56,1.31,1.39,3.33c2.25-.76,8.55-2.89,14.63-5.02-1.26-2.91-2.18-4.82-2.18-4.82Z"/>
            <path class="cls-32" d="m399.99,232.23s2.56,26.73,3.03,31.41c.47,4.68,5.38,6.17,8.02,6.04,2.65-.14,6.24,10.45,6.17,12.55,0,0,8.34,2.85,16.55-8.68l-1.02-9.9s6.51-15.33,5.09-23.2c-1.42-7.87-8.07-15.6-17.7-16.14-9.63-.54-20.15,7.94-20.15,7.94Z"/>
            <polygon class="cls-20" points="408.62 253.4 418.8 256.15 404 257.4 406.37 253.4 408.62 253.4"/>
            <path class="cls-33" d="m417.22,282.22s8.34,2.85,16.55-8.68l-1.02-9.9s2.19-5.16,3.75-11.02c-2.98-2.61-5.89-3.63-6.74,1.12-1.77,10-13.17,15.65-18.37,15.99,2.6.72,5.89,10.49,5.82,12.5Z"/>
            <path class="cls-20" d="m393.28,229.99s-7.19-11.8,0-18.04c7.19-6.24,19.26,1.9,19.26,1.9,0,0,3.39-2.98,9.5-.81,6.1,2.17,6.38,8,6.38,8,0,0,11.12.54,13.57,11.94,2.44,11.4-9.23,30.66-9.23,30.66l-2.98-9.9s4.43-.95,4.79-5.83c.36-4.88-2.22-7.01-3.98-6.92-1.76.09-3.48,1.85-3.75,6.38,0,0-5.79-6.2-3.8-15.06,0,0-19.48,2.26-25.14,2.26-8.5,0-4.61-4.57-4.61-4.57Z"/>
            <path class="cls-26" d="m447.03,277.92c7.39,4.21,12.36,4.57,27.83,35.86,0,0-7.51,7.51-20.17,10.4,0,0-19.48-34.92-7.66-46.26Z"/>
            <path class="cls-15" d="m429.47,542.5s19.69,0,35.01-5.43"/>
            <path class="cls-15" d="m384.58,542.5s21.01.12,35.3-5.43"/>
            <path class="cls-27" d="m414.08,523.92c3.32-.24,5.88-.76,5.88-.76,0,0-.18-25.69,0-50.47.18-24.78,12.3-58.61,12.3-58.61,0,0-15.95,30.1-19.82,52.32-3.33,19.12.5,49.44,1.63,57.52Z"/>
            <path class="cls-12" d="m445.86,519.86s8.19,2.47,17.92-1.39"/>
            <path class="cls-12" d="m403.57,520.18s6.85,1.59,16.31-.62"/>
            <polyline class="cls-14" points="406.69 245.97 405.32 253.4 409.35 253.4"/>
            <path class="cls-14" d="m406.99,259.41s1.41,1.21,5.66.3"/>
            <ellipse class="cls-20" cx="411.4" cy="243.07" rx="1.63" ry="2.54"/>
            <ellipse class="cls-20" cx="404" cy="243.07" rx="1.63" ry="2.54"/>
            <line class="cls-14" x1="409.77" y1="238.4" x2="415.5" y2="237.84"/>
            <line class="cls-14" x1="405.63" y1="238.4" x2="401.46" y2="237.84"/>
          </g>
        </g>
      </g>
    </g>
  </g>
</svg>