<?xml version="1.0" encoding="utf-8"?>
<!-- Generator: Adobe Illustrator 27.6.1, SVG Export Plug-In . SVG Version: 6.00 Build 0)  -->
<svg version="1.1" id="Layer_1" xmlns="http://www.w3.org/2000/svg" xmlns:xlink="http://www.w3.org/1999/xlink" x="0px" y="0px"
	 viewBox="0 0 594.5 606" style="enable-background:new 0 0 594.5 606;" xml:space="preserve">
<style type="text/css">
	.st0{clip-path:url(#SVGID_00000155834042784527832530000011209179345230699951_);}
	.st1{clip-path:url(#SVGID_00000101821185401600235250000014915902395461189789_);}
	.st2{fill:#87B7E2;}
	.st3{fill:#FFB800;}
	.st4{fill:#52B387;}
	.st5{fill:#428F6C;}
	.st6{fill:#002F57;}
	.st7{opacity:0.39;fill:#000E38;enable-background:new    ;}
	.st8{fill:#4380AC;}
	.st9{fill:#54545C;}
	.st10{fill:#FFFFFF;}
	.st11{fill:#D6E8FF;}
	.st12{fill:#000E38;}
	.st13{fill:none;stroke:#000E38;stroke-miterlimit:10;}
	.st14{clip-path:url(#SVGID_00000119106873251665225590000012007898295118277026_);}
	.st15{fill:#C4C4C4;}
	.st16{fill:#ADADAD;}
	.st17{opacity:0.37;fill:url(#SVGID_00000149372167179688637700000002668454203522814087_);enable-background:new    ;}
	.st18{fill:none;}
	.st19{fill:#CCCCCC;}
	.st20{fill:#63A6FF;}
	.st21{fill:#FFBE4D;}
	.st22{fill:none;stroke:#C4923B;stroke-width:2;stroke-miterlimit:10;}
	.st23{fill:#F08873;}
	.st24{fill:none;stroke:#BA5A47;stroke-width:2;stroke-miterlimit:10;}
	.st25{fill:none;stroke:#D6E8FF;stroke-miterlimit:10;}
	.st26{fill:none;stroke:#D6E8FF;stroke-width:2;stroke-linecap:round;stroke-linejoin:round;}
	.st27{fill:none;stroke:#B4C3D6;stroke-width:2;stroke-linecap:round;stroke-linejoin:round;}
	.st28{fill:#FFD8B8;}
	.st29{fill:#E6E6E6;}
	.st30{fill:#FFC494;}
	.st31{fill:#FF4E2B;}
	.st32{fill:#5059A6;}
	.st33{fill:#FFD285;}
	.st34{fill:#3B2F27;}
	.st35{fill:#F7D2B2;}
	.st36{fill:none;stroke:#F08873;stroke-miterlimit:10;}
	.st37{fill:none;stroke:#315A66;stroke-miterlimit:10;}
	.st38{fill:none;stroke:#CF9F78;stroke-miterlimit:10;}
</style>
<g>
	<g id="Layer_1_00000071530744154391774430000016050987060609667207_">
		<g>
			<defs>
				<path id="SVGID_1_" d="M97.6,0.6h411.9c16.6,0,30.1,13.5,30.1,30.1v463.4c0,16.6-13.5,30.1-30.1,30.1H97.6
					c-16.6,0-30.1-13.5-30.1-30.1V30.7C67.5,14.1,80.9,0.6,97.6,0.6z"/>
			</defs>
			<clipPath id="SVGID_00000173157679538886283020000009858193988138912392_">
				<use xlink:href="#SVGID_1_"  style="overflow:visible;"/>
			</clipPath>
			<g style="clip-path:url(#SVGID_00000173157679538886283020000009858193988138912392_);">
				<g>
					<defs>
						<rect id="SVGID_00000120527843736991065660000003492294208663317178_" x="67.5" y="0.8" width="472.2" height="523.6"/>
					</defs>
					<clipPath id="SVGID_00000056393728087943794420000008915562028723491510_">
						<use xlink:href="#SVGID_00000120527843736991065660000003492294208663317178_"  style="overflow:visible;"/>
					</clipPath>
					<g style="clip-path:url(#SVGID_00000056393728087943794420000008915562028723491510_);">
						<rect x="9.8" y="-52.6" class="st2" width="611" height="468.5"/>
						<path class="st3" d="M59,327.2c85,0,217.8-174.9,312.9-174.9s187.6,151.4,187.6,151.4v149.8H59V327.2L59,327.2z"/>
						<path class="st4" d="M517.4,441c0,0,14.4-62.2,24.6-61.1c10.2,1.1-17.2,64-17.2,64L517.4,441L517.4,441z"/>
						<path class="st4" d="M110.8,422.7c0,0-10.5-91.3-0.7-95.4c9.8-4.1,8.7,95.3,8.7,95.3L110.8,422.7z"/>
						<path class="st4" d="M344.3,442.2c0,0-10.5-91.3-0.7-95.4c9.8-4.1,8.7,95.3,8.7,95.3L344.3,442.2L344.3,442.2z"/>
						<path class="st5" d="M76.8,442.8h213.1c0,0-5.8-39-15.8-40.7c-10-1.7-14.7,20.4-14.7,20.4s-2-42.7-16-41s-11.3,24.9-17.7,25.8
							c-6.3,0.9-7-46.2-21-47.5c-14-1.3-15.7,18.7-21.4,18.4c-5.7-0.3,1.3-40.4-22-39.4s-29,68.7-36.4,65.4
							c-7.3-3.3-11.7-17.7-17.3-15c-5.7,2.7-6.3,28.7-13,27.7c-6.7-1-9-9-14.3-5S76.8,442.8,76.8,442.8L76.8,442.8z"/>
						<path class="st5" d="M307.3,442.8h213.1c0,0-5.8-39-15.8-40.7c-10-1.7-14.7,20.4-14.7,20.4s-2-42.7-16-41
							s-11.3,24.9-17.7,25.8c-6.3,0.9-7-46.2-21-47.5c-14-1.3-15.7,18.7-21.4,18.4c-5.7-0.3,1.3-40.4-22-39.4
							c-23.4,1-29,68.7-36.4,65.4c-7.3-3.3-11.7-17.7-17.3-15c-5.7,2.7-6.3,28.7-13,27.7c-6.7-1-9-9-14.3-5S307.3,442.8,307.3,442.8
							L307.3,442.8z"/>
						<path class="st4" d="M361.4,442.8c0,0-12.9-120.3,0-125.5c12.9-5.3,10.4,125.5,10.4,125.5H361.4z"/>
						<path class="st4" d="M475.7,452.5c0,0,5.2-120.9,18.8-124.1C508.1,325.1,486,454,486,454L475.7,452.5z"/>
						<path class="st4" d="M500.8,452.3c0,0,4-91.8,14.3-94.3c10.3-2.5-6.5,95.5-6.5,95.5L500.8,452.3L500.8,452.3z"/>
						<path class="st4" d="M90,448.2c0,0-10.5-91.3-0.7-95.4c9.8-4.1,8.7,95.3,8.7,95.3L90,448.2z"/>
						<rect x="59" y="437" class="st6" width="489.1" height="94.6"/>
						<ellipse class="st7" cx="425.9" cy="476.3" rx="48.5" ry="6.4"/>
						<ellipse class="st7" cx="229.6" cy="472.5" rx="131.8" ry="6.4"/>
						<path class="st8" d="M81.9,129.6h205.7c0,0-17.9-1.7-28-9.2c-10.1-7.5-6.6-23.7-38.4-23.7c0,0-6.9-35.7-40.3-35.7
							s-39.7,25-39.7,38c0,0-8.5-4.4-15.7,4.8c-7.2,9.1-6.3,14.2-13.8,14.5S90.4,129.3,81.9,129.6L81.9,129.6z"/>
						<path class="st8" d="M356.8,90.5h163.7c0,0-14.3-1.4-22.3-7.3c-8-6-5.3-18.9-30.6-18.9c0,0-4.1-28.4-32.9-28.4
							c-22.3,0-30.8,19.9-30.8,30.3c0,0-6.8-3.5-12.5,3.8c-5.8,7.3-5,11.5-11,11.5C367.7,81.5,363.5,90.2,356.8,90.5L356.8,90.5z"/>
						<rect x="123.5" y="109.9" class="st9" width="212.3" height="362.6"/>
						<rect x="134.5" y="123.1" class="st10" width="190.3" height="338.4"/>
						<rect x="134.5" y="123.1" class="st11" width="190.3" height="223.6"/>
						<rect x="134.5" y="123.1" class="st12" width="190.3" height="35"/>
						<g>
							<line class="st13" x1="146.5" y1="145.6" x2="157.4" y2="145.6"/>
							<line class="st13" x1="146.5" y1="142.2" x2="157.4" y2="142.2"/>
							<line class="st13" x1="146.5" y1="138.9" x2="157.4" y2="138.9"/>
							<line class="st13" x1="146.5" y1="135.5" x2="157.4" y2="135.5"/>
						</g>
						<g>
							<defs>
								<rect id="SVGID_00000060017722549340914400000013687074724842906007_" x="134.5" y="135" width="190.3" height="211.7"/>
							</defs>
							<clipPath id="SVGID_00000166650119861774207710000011596226157798666664_">
								<use xlink:href="#SVGID_00000060017722549340914400000013687074724842906007_"  style="overflow:visible;"/>
							</clipPath>
							<g style="clip-path:url(#SVGID_00000166650119861774207710000011596226157798666664_);">
								<g>
									<g>
										<circle class="st15" cx="142.8" cy="242.8" r="55.3"/>
										<path class="st16" d="M142.8,298.1c14.3,0,27.2-5.4,37-14.2l-3.6-15c-1.5-3.9-4.8-6.9-8.8-8l-10.7-2.8
											c-2.2-0.6-3.8-2.4-4.1-4.6l-0.4-2.6c5-4.9,8.4-13.4,8.4-21.8c0-12.9-8-21.7-17.8-21.7s-17.8,8.8-17.8,21.7
											c0,8.4,3.3,16.8,8.4,21.8l-0.4,2.6c-0.3,2.2-1.9,4-4.1,4.6l-10.7,2.8c-4,1.1-7.3,4-8.8,8l-3.6,15
											C115.6,292.7,128.5,298.1,142.8,298.1L142.8,298.1z"/>
									</g>
									
										<linearGradient id="SVGID_00000134216650415835366270000013571202354589914240_" gradientUnits="userSpaceOnUse" x1="104.9724" y1="17061.4473" x2="222.6971" y2="17061.4473" gradientTransform="matrix(1 0 0 1 0 -16818.6406)">
										<stop  offset="0.37" style="stop-color:#FFFFFF"/>
										<stop  offset="1" style="stop-color:#000000"/>
									</linearGradient>
									
										<circle style="opacity:0.37;fill:url(#SVGID_00000134216650415835366270000013571202354589914240_);enable-background:new    ;" cx="142.8" cy="242.8" r="55.3"/>
									<path class="st18" d="M181.2,203.1c-8.9,10.8-14.2,24.7-14.2,39.7s5.3,28.9,14.2,39.7c10.4-10.1,16.9-24.1,16.9-39.7
										S191.6,213.1,181.2,203.1z"/>
								</g>
							</g>
						</g>
						<g>
							<g>
								<circle class="st19" cx="229.6" cy="242.8" r="55.3"/>
								<path class="st20" d="M229.6,298.1c14.3,0,27.2-5.4,37-14.2l-3.6-15c-1.5-3.9-4.8-6.9-8.8-8l-10.7-2.8
									c-2.2-0.6-3.8-2.4-4.1-4.6l-0.4-2.6c5-4.9,8.4-13.4,8.4-21.8c0-12.9-8-21.7-17.8-21.7s-17.8,8.8-17.8,21.7
									c0,8.4,3.3,16.8,8.4,21.8l-0.4,2.6c-0.3,2.2-1.9,4-4.1,4.6l-10.7,2.8c-4,1.1-7.3,4-8.8,8l-3.6,15
									C202.4,292.7,215.4,298.1,229.6,298.1L229.6,298.1z"/>
							</g>
							<path class="st18" d="M265.5,200.7c-9.8,11.3-15.8,26-15.8,42.1s6,30.8,15.8,42.1c11.9-10.1,19.5-25.2,19.5-42.1
								S277.4,210.9,265.5,200.7z"/>
						</g>
						<path class="st10" d="M268.5,332.1h-77.8c-4.8,0-8.6-3.9-8.6-8.6l0,0c0-4.8,3.9-8.6,8.6-8.6h77.8c4.8,0,8.6,3.9,8.6,8.6l0,0
							C277.1,328.3,273.3,332.1,268.5,332.1z"/>
						<g>
							<g>
								<path class="st21" d="M204.6,384.4h-48.7c-5.2,0-9.4-4.2-9.4-9.4l0,0c0-5.2,4.2-9.4,9.4-9.4h48.7c5.2,0,9.4,4.2,9.4,9.4l0,0
									C214,380.1,209.8,384.4,204.6,384.4z"/>
								<line class="st22" x1="158.9" y1="374.9" x2="201.6" y2="374.9"/>
							</g>
							<g>
								<path class="st23" d="M301.5,384.4h-48.7c-5.2,0-9.4-4.2-9.4-9.4l0,0c0-5.2,4.2-9.4,9.4-9.4h48.7c5.2,0,9.4,4.2,9.4,9.4l0,0
									C310.9,380.1,306.7,384.4,301.5,384.4z"/>
								<line class="st24" x1="255.8" y1="374.9" x2="298.5" y2="374.9"/>
							</g>
						</g>
						<line class="st25" x1="134.5" y1="404.5" x2="324.8" y2="404.5"/>
						<g>
							<line class="st26" x1="158.9" y1="425.9" x2="245.2" y2="425.9"/>
							<line class="st26" x1="158.9" y1="437" x2="245.2" y2="437"/>
							<polyline class="st27" points="298.5,426.2 286.6,436.4 274.7,426.2 							"/>
						</g>
						<path class="st21" d="M219.7,147.4h-63.7c-3.8,0-6.8-3.1-6.8-6.8l0,0c0-3.8,3.1-6.8,6.8-6.8h63.7c3.8,0,6.8,3.1,6.8,6.8l0,0
							C226.5,144.3,223.5,147.4,219.7,147.4z"/>
						<g>
							<circle class="st10" cx="313.8" cy="242.8" r="55.3"/>
							<path class="st23" d="M313.8,298.1c14.3,0,27.2-5.4,37-14.2l-3.6-15c-1.5-3.9-4.8-6.9-8.8-8l-10.7-2.8
								c-2.2-0.6-3.8-2.4-4.1-4.6l-0.4-2.6c5-4.9,8.4-13.4,8.4-21.8c0-12.9-8-21.7-17.8-21.7c-9.8,0-17.8,8.8-17.8,21.7
								c0,8.4,3.3,16.8,8.4,21.8l-0.4,2.6c-0.3,2.2-1.9,4-4.1,4.6l-10.7,2.8c-4,1.1-7.3,4-8.8,8l-3.6,15
								C286.5,292.7,299.5,298.1,313.8,298.1z"/>
						</g>
						<path class="st28" d="M368.3,257.5c0,0-2.2-4-2.7-7.9c-0.5-3.9,0.4-7.2,0.4-7.2s-5.1-4.4-4.2-6.2s7.6,4.7,7.6,4.7l2.5,7.3
							L368.3,257.5L368.3,257.5z"/>
						<g>
							<path class="st29" d="M417.8,456v7.2c0,0,3.2,9.1,2.4,11.3c-0.9,2.3-32,6.9-34.1,3.9c-3.2-4.5,17.8-10.8,19.8-16.1l0.5-6.3
								L417.8,456L417.8,456z"/>
							<path class="st29" d="M461.4,456v7.2c0,0,3.2,9.1,2.4,11.3c-0.9,2.3-32,6.9-34.1,3.9c-3.2-4.5,17.8-10.8,19.8-16.1l0.5-6.3
								L461.4,456L461.4,456z"/>
							<path class="st23" d="M406.4,456l-0.5,6.3c-0.1,0.4-0.4,0.8-0.7,1.1c3.3,1.5,8.9,3.4,13.3,1.6c-0.4-1.1-0.6-1.9-0.6-1.9V456
								L406.4,456L406.4,456z"/>
							<path class="st23" d="M450,456l-0.5,6.3c-0.3,0.8-1,1.6-2,2.4c3.1,1.9,8.9,4.3,14.7,0.9c-0.4-1.4-0.8-2.4-0.8-2.4V456
								L450,456L450,456z"/>
							<path class="st28" d="M367.9,233.9c4,4.3,3.1,12.7,4.1,14.5c10.5,19.3,19.9,29,19.9,29c5-8.9,5.8-14,5.8-14l14.6,1.4
								c0,0-7.6,31-18,30.8s-22.1-18.9-27.5-37.1L367.9,233.9L367.9,233.9z"/>
							<path class="st30" d="M396.4,267.9c2.1,1.5,6.7,4.2,13.6,4.8c1.5-4.5,2.3-7.8,2.3-7.8l-14.6-1.4
								C397.7,263.4,397.5,265,396.4,267.9z"/>
							<path class="st31" d="M410.9,319.3l53.6-2.1l-1.3,141.1c0,0-7.3,3.7-17,0.9c0,0-12.2-86.8-13.8-107c0,0-11.9,33.1-12,57.3
								s0,49.3,0,49.3s-9.6,1.9-15.6,0c0,0-7.3-46-9.7-62.8S410.9,319.3,410.9,319.3L410.9,319.3z"/>
							<path class="st18" d="M408,329.3c6.9,4.2,27.7,15.3,56.3,14.8l0.3-26.8l-53.6,2.1C410.9,319.3,409.7,323.2,408,329.3
								L408,329.3z"/>
							<path class="st32" d="M400.9,233c-3.8,4.9-3.6,26.6-5.2,32.3c0,0,3.9,4.3,13.7,3.8c0,0-2.1-20.1-3.9-26.9
								C403.8,235.4,400.9,233,400.9,233L400.9,233z"/>
							<path class="st18" d="M412.3,264.9l-3.3-0.3c-0.7-6.3-2.1-17.6-3.4-22.3c-1.8-6.8-4.7-9.2-4.7-9.2l3.1,54.1
								C409.1,278,412.3,264.9,412.3,264.9z"/>
							<path class="st12" d="M433.7,212.5c0,0,12,4.9,19.8,11.1s12,94.8,12,94.8c-13.1,3-31.1,21.9-56.4,7.3c0,0-0.5-60.3-8.2-92.7
								c0,0,6.8-9.9,19.3-15.7C429.7,212.9,433.7,212.5,433.7,212.5L433.7,212.5z"/>
							<g>
								<path class="st32" d="M461.9,268.1c0-0.3-0.1-0.6-0.1-0.9c-13,1.8-35.4,4.2-55.6,2.2c0,0.3,0.1,0.6,0.1,1
									C426.6,272.3,448.9,270,461.9,268.1z"/>
								<path class="st32" d="M405,257.2c0,0.3,0.1,0.6,0.1,0.9c10.1,0.1,31.5-0.2,55.4-3.5c0-0.3-0.1-0.6-0.1-0.9
									C436.4,257,415,257.3,405,257.2L405,257.2z"/>
								<path class="st32" d="M463.1,281c0-0.3,0-0.6-0.1-1c-21.8,5.5-44.9,3.5-55.7,2c0,0.3,0,0.6,0.1,1
									C418.3,284.5,441.3,286.4,463.1,281L463.1,281z"/>
								<path class="st32" d="M464.1,294c0-0.3,0-0.6-0.1-0.9c-10.8,2.6-29.9,5.6-55.8,3c0,0.3,0,0.6,0,1c7.1,0.7,13.7,1,19.8,1
									C443.9,298,456.2,296,464.1,294L464.1,294z"/>
							</g>
							<g>
								
									<ellipse transform="matrix(0.7071 -0.7071 0.7071 0.7071 -75.0803 416.753)" class="st10" cx="465.5" cy="299" rx="51.8" ry="51.8"/>
								<path class="st33" d="M461,350.6c13.3,1.2,25.9-2.8,35.8-10.3l-2.2-14.3c-1.1-3.8-3.9-6.8-7.6-8.2l-9.8-3.5
									c-2-0.7-3.3-2.5-3.4-4.6l-0.1-2.5c5.1-4.2,8.9-11.8,9.6-19.6c1.1-12.1-5.7-21-14.8-21.8s-17.3,6.8-18.4,18.8
									c-0.7,7.8,1.8,16,6,21l-0.6,2.4c-0.5,2-2.1,3.6-4.2,3.9l-10.2,1.8c-3.9,0.7-7.2,3.2-8.9,6.7l-4.6,13.7
									C436,343.4,447.7,349.5,461,350.6L461,350.6z"/>
							</g>
							<path class="st18" d="M444.2,251.8c3.6,6.5,15.5,28,16.4,33.1c1.1,6,1.6,52.6,1.6,52.6h7.1c0,0,4.4-45.6,3.6-55.1
								c-0.6-6.7-9.5-24.7-14.7-34.7C453.3,248.4,448.6,249.8,444.2,251.8L444.2,251.8z"/>
							<path class="st28" d="M456.2,260.8c0,0,7.1,16.6,8.4,22.5c1.3,5.9-0.7,49.2-0.7,49.2s-9.1,14.4-9.3,16.1
								c-0.2,1.7,3.1-0.6,4.2,0c1.2,0.6-0.4,3.8,1,4.2c1.3,0.4,7.9-0.4,10.1-3c2.2-2.6,3.9-7.7,4-14.3c0,0,6.7-37.7,5.2-53.9
								c-0.9-9.5-9.4-27.2-9.4-27.2L456.2,260.8L456.2,260.8z"/>
							<path class="st30" d="M469.8,254.4l-13.5,6.4c0,0,0.5,1.3,1.4,3.3c2.2-0.7,8.4-2.8,14.3-4.9
								C470.7,256.3,469.8,254.4,469.8,254.4L469.8,254.4z"/>
							<path class="st28" d="M400.9,174.4c0,0,2.5,26.1,3,30.7s5.3,6,7.8,5.9c2.6-0.1,6.1,10.2,6,12.3c0,0,8.2,2.8,16.2-8.5l-1-9.7
								c0,0,6.4-15,5-22.7s-7.9-15.3-17.3-15.8C411.2,166.2,400.9,174.4,400.9,174.4L400.9,174.4z"/>
							<polygon class="st34" points="409.3,195.1 419.3,197.8 404.8,199 407.1,195.1 							"/>
							<path class="st35" d="M417.7,223.3c0,0,8.2,2.8,16.2-8.5l-1-9.7c0,0,2.1-5,3.7-10.8c-2.9-2.6-5.8-3.5-6.6,1.1
								c-1.7,9.8-12.9,15.3-18,15.6C414.6,211.8,417.8,221.3,417.7,223.3L417.7,223.3z"/>
							<path class="st34" d="M394.3,172.2c0,0-7-11.5,0-17.6c7-6.1,18.8,1.9,18.8,1.9s3.3-2.9,9.3-0.8c6,2.1,6.2,7.8,6.2,7.8
								s10.9,0.5,13.3,11.7c2.4,11.1-9,30-9,30l-2.9-9.7c0,0,4.3-0.9,4.7-5.7c0.4-4.8-2.2-6.9-3.9-6.8c-1.7,0.1-3.4,1.8-3.7,6.2
								c0,0-5.7-6.1-3.7-14.7c0,0-19,2.2-24.6,2.2C390.5,176.7,394.3,172.2,394.3,172.2L394.3,172.2z"/>
							<path class="st32" d="M446.9,219.1c7.2,4.1,12.1,4.5,27.2,35.1c0,0-7.3,7.3-19.7,10.2C454.4,264.3,435.3,230.2,446.9,219.1
								L446.9,219.1z"/>
							<path class="st36" d="M429.7,477.8c0,0,19.3,0,34.2-5.3"/>
							<path class="st36" d="M385.8,477.8c0,0,20.5,0.1,34.5-5.3"/>
							<path class="st18" d="M414.7,459.6c3.2-0.2,5.7-0.7,5.7-0.7s-0.2-25.1,0-49.3c0.2-24.2,12-57.3,12-57.3s-15.6,29.4-19.4,51.2
								C409.8,422.1,413.6,451.7,414.7,459.6L414.7,459.6z"/>
							<path class="st37" d="M445.7,455.7c0,0,8,2.4,17.5-1.4"/>
							<path class="st37" d="M404.4,456c0,0,6.7,1.6,15.9-0.6"/>
							<polyline class="st38" points="407.4,187.9 406.1,195.1 410,195.1 							"/>
							<path class="st38" d="M407.7,201c0,0,1.4,1.2,5.5,0.3"/>
							<ellipse class="st34" cx="412.1" cy="185" rx="1.6" ry="2.5"/>
							<ellipse class="st34" cx="404.8" cy="185" rx="1.6" ry="2.5"/>
							<line class="st38" x1="410.5" y1="180.5" x2="416.1" y2="179.9"/>
							<line class="st38" x1="406.4" y1="180.5" x2="402.3" y2="179.9"/>
						</g>
					</g>
				</g>
			</g>
		</g>
	</g>
</g>
</svg>
