<?xml version="1.0" encoding="utf-8"?>
<!-- Generator: Adobe Illustrator 27.6.1, SVG Export Plug-In . SVG Version: 6.00 Build 0)  -->
<svg version="1.1" id="Layer_1" xmlns="http://www.w3.org/2000/svg" xmlns:xlink="http://www.w3.org/1999/xlink" x="0px" y="0px"
	 viewBox="0 0 538.9 597.6" style="enable-background:new 0 0 538.9 597.6;" xml:space="preserve">
<style type="text/css">
	.st0{clip-path:url(#SVGID_00000160905473311721913080000011920148943781483164_);}
	.st1{clip-path:url(#SVGID_00000118394558814060484990000014866573883430198194_);}
	.st2{fill:#87B7E2;}
	.st3{fill:#FFB800;}
	.st4{fill:#52B387;}
	.st5{fill:#428F6C;}
	.st6{fill:#002F57;}
	.st7{opacity:0.39;fill:#000E38;enable-background:new    ;}
	.st8{fill:#4380AC;}
	.st9{fill:#54545C;}
	.st10{fill:#FFFFFF;}
	.st11{fill:#D6E8FF;}
	.st12{fill:#000E38;}
	.st13{fill:none;stroke:#000E38;stroke-miterlimit:10;}
	.st14{clip-path:url(#SVGID_00000127010962076910806180000017368015633509960093_);}
	.st15{fill:#C4C4C4;}
	.st16{fill:#ADADAD;}
	.st17{opacity:0.37;fill:url(#SVGID_00000131326268366118837500000012424398193320347541_);enable-background:new    ;}
	.st18{fill:none;}
	.st19{fill:#CCCCCC;}
	.st20{fill:#63A6FF;}
	.st21{fill:#FFBE4D;}
	.st22{fill:none;stroke:#C4923B;stroke-width:2;stroke-miterlimit:10;}
	.st23{fill:#F08873;}
	.st24{fill:none;stroke:#BA5A47;stroke-width:2;stroke-miterlimit:10;}
	.st25{fill:none;stroke:#D6E8FF;stroke-miterlimit:10;}
	.st26{fill:none;stroke:#D6E8FF;stroke-width:2;stroke-linecap:round;stroke-linejoin:round;}
	.st27{fill:none;stroke:#B4C3D6;stroke-width:2;stroke-linecap:round;stroke-linejoin:round;}
	.st28{fill:#FFD8B8;}
	.st29{fill:#E6E6E6;}
	.st30{fill:#FFC494;}
	.st31{fill:#FF4E2B;}
	.st32{fill:#5059A6;}
	.st33{fill:#FFD285;}
	.st34{fill:#3B2F27;}
	.st35{fill:#F7D2B2;}
	.st36{fill:none;stroke:#F08873;stroke-miterlimit:10;}
	.st37{fill:none;stroke:#315A66;stroke-miterlimit:10;}
	.st38{fill:none;stroke:#CF9F78;stroke-miterlimit:10;}
</style>
<g>
	<g id="Layer_1_00000071530744154391774430000016050987060609667207_">
		<g>
			<defs>
				<path id="SVGID_1_" d="M85.6,0.6h367.6c14.8,0,26.9,12,26.9,26.9V441c0,14.8-12,26.9-26.9,26.9H85.6c-14.8,0-26.9-12-26.9-26.9
					V27.4C58.8,12.6,70.8,0.6,85.6,0.6z"/>
			</defs>
			<clipPath id="SVGID_00000053534102236646399770000008721458815778792113_">
				<use xlink:href="#SVGID_1_"  style="overflow:visible;"/>
			</clipPath>
			<g style="clip-path:url(#SVGID_00000053534102236646399770000008721458815778792113_);">
				<g>
					<defs>
						<rect id="SVGID_00000003086369033274924470000008327878606360724120_" x="58.8" y="0.8" width="421.3" height="467.3"/>
					</defs>
					<clipPath id="SVGID_00000031199239970735648550000003711969225309042586_">
						<use xlink:href="#SVGID_00000003086369033274924470000008327878606360724120_"  style="overflow:visible;"/>
					</clipPath>
					<g style="clip-path:url(#SVGID_00000031199239970735648550000003711969225309042586_);">
						<rect x="7.3" y="-46.9" class="st2" width="545.3" height="418.1"/>
						<path class="st3" d="M51.2,292C127,292,245.6,136,330.4,136s167.4,135.1,167.4,135.1v133.6H51.2V292L51.2,292z"/>
						<path class="st4" d="M460.2,393.6c0,0,12.8-55.5,21.9-54.5s-15.3,57.1-15.3,57.1L460.2,393.6L460.2,393.6z"/>
						<path class="st4" d="M97.4,377.3c0,0-9.4-81.5-0.6-85.1c8.8-3.6,7.7,85.1,7.7,85.1L97.4,377.3z"/>
						<path class="st4" d="M305.8,394.7c0,0-9.4-81.5-0.6-85.1c8.8-3.6,7.7,85.1,7.7,85.1L305.8,394.7L305.8,394.7z"/>
						<path class="st5" d="M67,395.2h190.2c0,0-5.2-34.8-14.1-36.3C234.2,357.4,230,377,230,377s-1.8-38.1-14.3-36.6
							c-12.5,1.5-10.1,22.3-15.8,23c-5.7,0.8-6.3-41.2-18.8-42.4s-14,16.7-19.1,16.4c-5.1-0.3,1.2-36-19.6-35.1
							s-25.9,61.3-32.5,58.4c-6.6-3-10.4-15.8-15.5-13.4c-5.1,2.4-5.7,25.6-11.6,24.7c-6-0.9-8-8-12.8-4.5S67,395.2,67,395.2
							L67,395.2z"/>
						<path class="st5" d="M272.8,395.2H463c0,0-5.2-34.8-14.1-36.3c-8.9-1.5-13.1,18.2-13.1,18.2s-1.8-38.1-14.3-36.6
							c-12.5,1.5-10.1,22.3-15.8,23c-5.7,0.8-6.3-41.2-18.8-42.4c-12.5-1.2-14,16.7-19.1,16.4c-5.1-0.3,1.2-36-19.6-35.1
							c-20.8,0.9-25.9,61.3-32.5,58.4c-6.6-3-10.4-15.8-15.5-13.4s-5.7,25.6-11.6,24.7c-6-0.9-8-8-12.8-4.5S272.8,395.2,272.8,395.2
							L272.8,395.2z"/>
						<path class="st4" d="M321.1,395.2c0,0-11.6-107.3,0-112c11.6-4.7,9.3,112,9.3,112H321.1z"/>
						<path class="st4" d="M423.1,403.9c0,0,4.7-107.9,16.8-110.8c12.1-2.9-7.6,112.2-7.6,112.2L423.1,403.9z"/>
						<path class="st4" d="M445.5,403.7c0,0,3.6-82,12.8-84.2c9.2-2.2-5.8,85.2-5.8,85.2L445.5,403.7L445.5,403.7z"/>
						<path class="st4" d="M78.8,400c0,0-9.4-81.5-0.6-85.1s7.7,85.1,7.7,85.1L78.8,400z"/>
						<rect x="51.2" y="390" class="st6" width="436.5" height="84.5"/>
						<ellipse class="st7" cx="378.7" cy="425.1" rx="43.3" ry="5.7"/>
						<ellipse class="st7" cx="203.5" cy="421.7" rx="117.6" ry="5.7"/>
						<path class="st8" d="M71.6,115.7h183.6c0,0-16-1.5-25-8.2c-9-6.7-5.9-21.1-34.3-21.1c0,0-6.2-31.9-36-31.9
							s-35.4,22.3-35.4,33.9c0,0-7.6-3.9-14,4.3c-6.5,8.1-5.6,12.6-12.4,12.9C91.4,105.9,79.2,115.4,71.6,115.7L71.6,115.7z"/>
						<path class="st8" d="M316.9,80.8H463c0,0-12.7-1.2-19.9-6.5c-7.2-5.3-4.7-16.8-27.3-16.8c0,0-3.6-25.4-29.3-25.4
							c-19.9,0-27.4,17.8-27.4,27c0,0-6-3.1-11.2,3.4c-5.1,6.5-4.5,10.3-9.8,10.3C326.7,72.8,323,80.6,316.9,80.8L316.9,80.8z"/>
						<rect x="108.8" y="98.1" class="st9" width="189.4" height="323.6"/>
						<rect x="118.5" y="109.9" class="st10" width="169.9" height="302"/>
						<rect x="118.5" y="109.9" class="st11" width="169.9" height="199.5"/>
						<rect x="118.5" y="109.9" class="st12" width="169.9" height="31.2"/>
						<g>
							<line class="st13" x1="129.3" y1="130" x2="139" y2="130"/>
							<line class="st13" x1="129.3" y1="127" x2="139" y2="127"/>
							<line class="st13" x1="129.3" y1="124" x2="139" y2="124"/>
							<line class="st13" x1="129.3" y1="121" x2="139" y2="121"/>
						</g>
						<g>
							<defs>
								<rect id="SVGID_00000105420978587335176190000001708207409832671662_" x="118.5" y="120.5" width="169.9" height="188.9"/>
							</defs>
							<clipPath id="SVGID_00000111887410498739230730000008171766526479521959_">
								<use xlink:href="#SVGID_00000105420978587335176190000001708207409832671662_"  style="overflow:visible;"/>
							</clipPath>
							<g style="clip-path:url(#SVGID_00000111887410498739230730000008171766526479521959_);">
								<g>
									<g>
										<circle class="st15" cx="126" cy="216.7" r="49.3"/>
										<path class="st16" d="M126,266.1c12.7,0,24.3-4.8,33.1-12.7l-3.3-13.4c-1.3-3.5-4.2-6.2-7.9-7.1l-9.5-2.5
											c-1.9-0.5-3.4-2.1-3.6-4.1l-0.3-2.3c4.5-4.4,7.5-11.9,7.5-19.4c0-11.5-7.1-19.4-15.9-19.4s-15.9,7.9-15.9,19.4
											c0,7.5,3,15,7.5,19.4l-0.3,2.3c-0.3,2-1.7,3.6-3.6,4.1l-9.5,2.5c-3.6,1-6.5,3.6-7.9,7.1l-3.3,13.4
											C101.7,261.3,113.3,266.1,126,266.1L126,266.1z"/>
									</g>
									
										<linearGradient id="SVGID_00000145050861558832711840000000429338660894148526_" gradientUnits="userSpaceOnUse" x1="92.2314" y1="17035.3789" x2="197.287" y2="17035.3789" gradientTransform="matrix(1 0 0 1 0 -16818.6406)">
										<stop  offset="0.37" style="stop-color:#FFFFFF"/>
										<stop  offset="1" style="stop-color:#000000"/>
									</linearGradient>
									
										<circle style="opacity:0.37;fill:url(#SVGID_00000145050861558832711840000000429338660894148526_);enable-background:new    ;" cx="126" cy="216.7" r="49.3"/>
									<path class="st18" d="M160.3,181.3c-7.9,9.7-12.7,22-12.7,35.5s4.8,25.8,12.7,35.5c9.3-9,15.1-21.5,15.1-35.5
										S169.5,190.2,160.3,181.3z"/>
								</g>
							</g>
						</g>
						<g>
							<g>
								<circle class="st19" cx="203.5" cy="216.7" r="49.3"/>
								<path class="st20" d="M203.5,266.1c12.7,0,24.3-4.8,33.1-12.7l-3.3-13.4c-1.3-3.5-4.2-6.2-7.9-7.1l-9.5-2.5
									c-1.9-0.5-3.4-2.1-3.6-4.1l-0.3-2.3c4.5-4.4,7.5-11.9,7.5-19.4c0-11.5-7.1-19.4-15.9-19.4c-8.8,0-15.9,7.9-15.9,19.4
									c0,7.5,3,15,7.5,19.4l-0.3,2.3c-0.3,2-1.7,3.6-3.6,4.1l-9.5,2.5c-3.6,1-6.5,3.6-7.9,7.1l-3.3,13.4
									C179.2,261.3,190.7,266.1,203.5,266.1L203.5,266.1z"/>
							</g>
							<path class="st18" d="M235.4,179.2c-8.8,10.1-14.1,23.2-14.1,37.6s5.3,27.5,14.1,37.6c10.6-9,17.4-22.5,17.4-37.6
								S246.1,188.2,235.4,179.2z"/>
						</g>
						<path class="st10" d="M238.2,296.5h-69.4c-4.3,0-7.7-3.5-7.7-7.7l0,0c0-4.3,3.5-7.7,7.7-7.7h69.4c4.3,0,7.7,3.5,7.7,7.7l0,0
							C245.9,293,242.4,296.5,238.2,296.5z"/>
						<g>
							<g>
								<path class="st21" d="M181.2,343.1h-43.4c-4.6,0-8.4-3.8-8.4-8.4l0,0c0-4.6,3.8-8.4,8.4-8.4h43.4c4.6,0,8.4,3.8,8.4,8.4l0,0
									C189.6,339.3,185.8,343.1,181.2,343.1z"/>
								<line class="st22" x1="140.4" y1="334.6" x2="178.5" y2="334.6"/>
							</g>
							<g>
								<path class="st23" d="M267.6,343.1h-43.4c-4.6,0-8.4-3.8-8.4-8.4l0,0c0-4.6,3.8-8.4,8.4-8.4h43.4c4.6,0,8.4,3.8,8.4,8.4l0,0
									C276,339.3,272.2,343.1,267.6,343.1z"/>
								<line class="st24" x1="226.8" y1="334.6" x2="264.9" y2="334.6"/>
							</g>
						</g>
						<line class="st25" x1="118.5" y1="361" x2="288.4" y2="361"/>
						<g>
							<line class="st26" x1="140.4" y1="380.1" x2="217.4" y2="380.1"/>
							<line class="st26" x1="140.4" y1="390" x2="217.4" y2="390"/>
							<polyline class="st27" points="264.9,380.4 254.3,389.5 243.7,380.4 							"/>
						</g>
						<path class="st21" d="M194.6,131.6h-56.9c-3.4,0-6.1-2.7-6.1-6.1l0,0c0-3.4,2.7-6.1,6.1-6.1h56.9c3.4,0,6.1,2.7,6.1,6.1l0,0
							C200.7,128.9,198,131.6,194.6,131.6z"/>
						<g>
							<circle class="st10" cx="278.6" cy="216.7" r="49.3"/>
							<path class="st23" d="M278.6,266.1c12.7,0,24.3-4.8,33.1-12.7l-3.3-13.4c-1.3-3.5-4.2-6.2-7.9-7.1l-9.5-2.5
								c-1.9-0.5-3.4-2.1-3.6-4.1l-0.3-2.3c4.5-4.4,7.5-11.9,7.5-19.4c0-11.5-7.1-19.4-15.9-19.4s-15.9,7.9-15.9,19.4
								c0,7.5,3,15,7.5,19.4l-0.3,2.3c-0.3,2-1.7,3.6-3.6,4.1l-9.5,2.5c-3.6,1-6.5,3.6-7.9,7.1l-3.3,13.4
								C254.2,261.3,265.8,266.1,278.6,266.1z"/>
						</g>
						<path class="st28" d="M327.2,229.8c0,0-2-3.6-2.4-7.1c-0.4-3.5,0.3-6.5,0.3-6.5s-4.6-4-3.7-5.5c0.8-1.6,6.7,4.2,6.7,4.2
							l2.2,6.5L327.2,229.8L327.2,229.8z"/>
						<g>
							<path class="st29" d="M371.4,407v6.4c0,0,2.9,8.1,2.1,10.1s-28.5,6.2-30.4,3.5c-2.8-4,15.9-9.7,17.6-14.4l0.5-5.6L371.4,407
								L371.4,407z"/>
							<path class="st29" d="M410.3,407v6.4c0,0,2.9,8.1,2.1,10.1s-28.5,6.2-30.4,3.5c-2.8-4,15.9-9.7,17.6-14.4l0.5-5.6L410.3,407
								L410.3,407z"/>
							<path class="st23" d="M361.2,407l-0.5,5.6c-0.1,0.3-0.3,0.7-0.6,1c3,1.4,7.9,3,11.8,1.4c-0.3-1-0.6-1.7-0.6-1.7V407
								L361.2,407L361.2,407z"/>
							<path class="st23" d="M400.1,407l-0.5,5.6c-0.3,0.7-0.9,1.4-1.8,2.2c2.8,1.7,7.9,3.9,13.2,0.8c-0.4-1.3-0.7-2.1-0.7-2.1V407
								L400.1,407L400.1,407z"/>
							<path class="st28" d="M326.9,208.8c3.5,3.8,2.8,11.3,3.6,12.9c9.4,17.3,17.7,25.9,17.7,25.9c4.5-8,5.2-12.5,5.2-12.5l13,1.3
								c0,0-6.8,27.6-16,27.5s-19.8-16.9-24.6-33.1L326.9,208.8L326.9,208.8z"/>
							<path class="st30" d="M352.3,239.1c1.9,1.4,6,3.7,12.1,4.3c1.3-4,2.1-7,2.1-7l-13-1.3C353.5,235.2,353.2,236.5,352.3,239.1z"
								/>
							<path class="st31" d="M365.3,285l47.9-1.9l-1.2,125.9c0,0-6.5,3.3-15.1,0.8c0,0-10.9-77.5-12.3-95.5c0,0-10.6,29.5-10.7,51.1
								c-0.2,21.6,0,44,0,44s-8.5,1.7-13.9,0c0,0-6.5-41-8.7-56C349,338.5,365.2,285,365.3,285L365.3,285z"/>
							<path class="st18" d="M362.7,293.9c6.1,3.8,24.7,13.7,50.2,13.2l0.2-24l-47.9,1.9C365.3,285,364.2,288.5,362.7,293.9
								L362.7,293.9z"/>
							<path class="st32" d="M356.3,208c-3.4,4.3-3.3,23.8-4.6,28.8c0,0,3.5,3.9,12.2,3.4c0,0-1.9-17.9-3.5-24
								C358.9,210.2,356.3,208,356.3,208L356.3,208z"/>
							<path class="st18" d="M366.5,236.4l-3-0.3c-0.7-5.7-1.9-15.7-3-19.9c-1.6-6.1-4.2-8.2-4.2-8.2l2.7,48.2
								C363.6,248.1,366.5,236.4,366.5,236.4z"/>
							<path class="st12" d="M385.6,189.7c0,0,10.7,4.4,17.7,9.9c6.9,5.6,10.7,84.6,10.7,84.6c-11.7,2.7-27.8,19.6-50.3,6.5
								c0,0-0.4-53.8-7.3-82.7c0,0,6.1-8.8,17.3-14C382,190,385.6,189.7,385.6,189.7L385.6,189.7z"/>
							<g>
								<path class="st32" d="M410.8,239.3c0-0.3-0.1-0.6-0.1-0.8c-11.6,1.6-31.6,3.7-49.6,1.9c0,0.3,0.1,0.6,0.1,0.9
									C379.2,243,399.2,241,410.8,239.3z"/>
								<path class="st32" d="M359.9,229.6c0,0.3,0.1,0.6,0.1,0.8c9,0.1,28.1-0.1,49.5-3.1c0-0.3-0.1-0.6-0.1-0.8
									C388,229.4,368.9,229.7,359.9,229.6L359.9,229.6z"/>
								<path class="st32" d="M411.8,250.8c0-0.3,0-0.6-0.1-0.9c-19.5,4.9-40.1,3.1-49.7,1.8c0,0.3,0,0.6,0.1,0.9
									C371.9,253.9,392.3,255.6,411.8,250.8L411.8,250.8z"/>
								<path class="st32" d="M412.7,262.5c0-0.3,0-0.6-0.1-0.8c-9.6,2.3-26.7,5-49.8,2.7c0,0.3,0,0.6,0,0.9
									c6.3,0.6,12.2,0.9,17.6,0.9C394.7,266,405.6,264.2,412.7,262.5L412.7,262.5z"/>
							</g>
							<g>
								
									<ellipse transform="matrix(0.7071 -0.7071 0.7071 0.7071 -67.467 370.9005)" class="st10" cx="414" cy="266.9" rx="46.2" ry="46.2"/>
								<path class="st33" d="M409.9,313c11.9,1,23.1-2.5,31.9-9.2l-1.9-12.8c-0.9-3.4-3.5-6.1-6.8-7.3l-8.7-3.2
									c-1.8-0.6-3-2.3-3.1-4.1l-0.1-2.2c4.6-3.7,8-10.5,8.6-17.5c0.9-10.8-5-18.7-13.2-19.4c-8.2-0.7-15.5,6.1-16.4,16.8
									c-0.6,7,1.6,14.3,5.4,18.7L405,275c-0.4,1.8-1.9,3.2-3.7,3.5l-9.1,1.6c-3.5,0.6-6.4,2.8-7.9,6l-4.1,12.3
									C387.6,306.5,398.1,311.9,409.9,313L409.9,313z"/>
							</g>
							<path class="st18" d="M395,224.7c3.2,5.8,13.8,25,14.6,29.5c1,5.3,1.4,46.9,1.4,46.9h6.3c0,0,3.9-40.7,3.2-49.2
								c-0.5-6-8.5-22.1-13.1-30.9C403.1,221.7,398.9,223,395,224.7L395,224.7z"/>
							<path class="st28" d="M405.7,232.8c0,0,6.3,14.8,7.5,20.1c1.2,5.3-0.6,43.9-0.6,43.9s-8.1,12.9-8.3,14.4s2.8-0.5,3.8,0
								c1,0.5-0.3,3.4,0.9,3.8c1.2,0.4,7-0.3,9-2.7c2-2.4,3.5-6.9,3.6-12.8c0,0,6-33.6,4.7-48.1c-0.8-8.5-8.4-24.3-8.4-24.3
								L405.7,232.8L405.7,232.8z"/>
							<path class="st30" d="M417.8,227.1l-12.1,5.7c0,0,0.5,1.1,1.2,2.9c2-0.7,7.5-2.5,12.8-4.4
								C418.6,228.8,417.8,227.1,417.8,227.1L417.8,227.1z"/>
							<path class="st28" d="M356.3,155.7c0,0,2.2,23.3,2.6,27.4s4.7,5.4,7,5.3c2.3-0.1,5.4,9.1,5.4,11c0,0,7.3,2.5,14.4-7.6
								l-0.9-8.6c0,0,5.7-13.4,4.4-20.2s-7-13.6-15.4-14.1C365.5,148.3,356.3,155.7,356.3,155.7L356.3,155.7z"/>
							<polygon class="st34" points="363.8,174.2 372.7,176.6 359.8,177.7 361.9,174.2 							"/>
							<path class="st35" d="M371.3,199.3c0,0,7.3,2.5,14.4-7.6l-0.9-8.6c0,0,1.9-4.5,3.3-9.6c-2.6-2.3-5.1-3.2-5.9,1
								c-1.5,8.7-11.5,13.7-16,14C368.5,189.1,371.4,197.6,371.3,199.3L371.3,199.3z"/>
							<path class="st34" d="M350.5,153.8c0,0-6.3-10.3,0-15.7c6.3-5.4,16.8,1.7,16.8,1.7s3-2.6,8.3-0.7c5.3,1.9,5.6,7,5.6,7
								s9.7,0.5,11.8,10.4c2.1,9.9-8.1,26.8-8.1,26.8l-2.6-8.6c0,0,3.9-0.8,4.2-5.1c0.3-4.3-1.9-6.1-3.5-6c-1.5,0.1-3,1.6-3.3,5.6
								c0,0-5.1-5.4-3.3-13.1c0,0-17,2-21.9,2C347.1,157.8,350.5,153.8,350.5,153.8L350.5,153.8z"/>
							<path class="st32" d="M397.4,195.6c6.4,3.7,10.8,4,24.3,31.3c0,0-6.6,6.6-17.6,9.1C404,235.9,387,205.5,397.4,195.6
								L397.4,195.6z"/>
							<path class="st36" d="M382,426.4c0,0,17.2,0,30.5-4.7"/>
							<path class="st36" d="M342.9,426.4c0,0,18.3,0.1,30.8-4.7"/>
							<path class="st18" d="M368.6,410.2c2.9-0.2,5.1-0.7,5.1-0.7s-0.2-22.4,0-44s10.7-51.1,10.7-51.1s-13.9,26.3-17.3,45.7
								C364.3,376.7,367.6,403.2,368.6,410.2L368.6,410.2z"/>
							<path class="st37" d="M396.3,406.7c0,0,7.1,2.2,15.6-1.2"/>
							<path class="st37" d="M359.4,407c0,0,6,1.4,14.2-0.5"/>
							<polyline class="st38" points="362.2,167.7 361,174.2 364.5,174.2 							"/>
							<path class="st38" d="M362.4,179.4c0,0,1.2,1.1,4.9,0.3"/>
							<ellipse class="st34" cx="366.3" cy="165.2" rx="1.4" ry="2.2"/>
							<ellipse class="st34" cx="359.8" cy="165.2" rx="1.4" ry="2.2"/>
							<line class="st38" x1="364.8" y1="161.1" x2="369.8" y2="160.6"/>
							<line class="st38" x1="361.2" y1="161.1" x2="357.6" y2="160.6"/>
						</g>
					</g>
				</g>
			</g>
		</g>
	</g>
</g>
</svg>
